<svg width="1007" height="786" viewBox="0 0 1007 786" fill="none" xmlns="http://www.w3.org/2000/svg">
<g id="illustration-laptop-desktop 1" clip-path="url(#clip0)">
<g id="lines">
<path id="first-lime" opacity="0.5" d="M749.047 394C749.047 577.635 595.138 726.5 405.281 726.5C215.425 726.5 61.5159 577.635 61.5159 394V392C61.5159 208.365 215.425 59.5 405.281 59.5C595.138 59.5 749.047 208.365 749.047 392V394Z" stroke="#2D2E40"/>
<path id="second-lime" opacity="0.25" d="M810.046 394C810.046 610.219 628.827 785.5 405.281 785.5C181.736 785.5 0.516968 610.219 0.516968 394V392C0.516968 175.781 181.736 0.5 405.281 0.5C628.827 0.5 810.046 175.781 810.046 392V394Z" stroke="#2D2E40"/>
<path id="middle-black" opacity="0.08" d="M689.599 394C689.599 545.878 562.305 669 405.281 669C248.257 669 120.964 545.878 120.964 394V392C120.964 240.122 248.257 117 405.281 117C562.305 117 689.599 240.122 689.599 392V394Z" fill="#2D2E40"/>
</g>
<g id="Group" filter="url(#filter0_d)">
<path id="Vector" d="M475.599 210H-55.8152C-62.6672 210 -68.2218 215.373 -68.2218 222V566C-68.2218 572.627 -62.6672 578 -55.8152 578H475.599C482.451 578 488.006 572.627 488.006 566V222C488.006 215.373 482.451 210 475.599 210Z" fill="#535353"/>
<path id="Vector_2" d="M474.566 213H-54.7813C-60.4913 213 -65.1201 217.477 -65.1201 223V565C-65.1201 570.523 -60.4913 575 -54.7813 575H474.566C480.276 575 484.905 570.523 484.905 565V223C484.905 217.477 480.276 213 474.566 213Z" fill="#1D1D25"/>
<g id="Group_2">
<mask id="mask0" mask-type="alpha" maskUnits="userSpaceOnUse" x="-51" y="226" width="524" height="336">
<g id="d">
<path id="Vector_3" d="M469.396 226H-47.5442C-49.2572 226 -50.6458 227.343 -50.6458 229V558.872C-50.6458 560.529 -49.2572 561.872 -47.5442 561.872H469.396C471.109 561.872 472.498 560.529 472.498 558.872V229C472.498 227.343 471.109 226 469.396 226Z" fill="white"/>
</g>
</mask>
<g mask="url(#mask0)">
<path id="Vector_4" d="M469.396 226H-47.5442C-49.2572 226 -50.6458 227.343 -50.6458 229V558.872C-50.6458 560.529 -49.2572 561.872 -47.5442 561.872H469.396C471.109 561.872 472.498 560.529 472.498 558.872V229C472.498 227.343 471.109 226 469.396 226Z" fill="url(#paint0_linear)"/>
<path id="Vector_5" d="M469.06 286.293H-47.8802C-49.5932 286.293 -50.9818 287.636 -50.9818 289.293V559.131C-50.9818 560.788 -49.5932 562.131 -47.8802 562.131H469.06C470.773 562.131 472.162 560.788 472.162 559.131V289.293C472.162 287.636 470.773 286.293 469.06 286.293Z" fill="#F9F6F6"/>
<g id="Group_3">
<g id="Group_4">
<path id="Vector_6" d="M131.985 252H27.9292C26.2162 252 24.8275 253.343 24.8275 255V505.541C24.8275 507.198 26.2162 508.541 27.9292 508.541H131.985C133.698 508.541 135.087 507.198 135.087 505.541V255C135.087 253.343 133.698 252 131.985 252Z" fill="white"/>
<rect id="Rectangle 8" x="34.1324" y="427" width="98.2187" height="17" rx="5" fill="#E7E7E7"/>
<rect id="Rectangle 7" x="35.1663" y="395" width="76.5071" height="17" rx="5" fill="#E7E7E7"/>
<rect id="Rectangle 6" x="34.1324" y="361" width="54.7957" height="17" rx="5" fill="#E7E7E7"/>
<rect id="Rectangle 5" x="34.1324" y="459" width="33.0842" height="17" rx="5" fill="#E7E7E7"/>
<path id="Vector_7" d="M395.499 263.46H155.379C153.666 263.46 152.277 264.803 152.277 266.46V517.001C152.277 518.658 153.666 520.001 155.379 520.001H395.499C397.212 520.001 398.6 518.658 398.6 517.001V266.46C398.6 264.803 397.212 263.46 395.499 263.46Z" fill="white"/>
<path id="Vector_8" d="M384.943 277.082H165.936C164.223 277.082 162.834 278.425 162.834 280.082V334.244C162.834 335.901 164.223 337.244 165.936 337.244H384.943C386.656 337.244 388.044 335.901 388.044 334.244V280.082C388.044 278.425 386.656 277.082 384.943 277.082Z" fill="#E7E7E7"/>
<path id="Vector_9" d="M226.591 349.73H165.936C164.223 349.73 162.834 351.073 162.834 352.73V406.892C162.834 408.549 164.223 409.892 165.936 409.892H226.591C228.304 409.892 229.693 408.549 229.693 406.892V352.73C229.693 351.073 228.304 349.73 226.591 349.73Z" fill="#C7C7C7"/>
<path id="Vector_10" d="M384.943 349.73H249.217C247.504 349.73 246.115 351.073 246.115 352.73V406.892C246.115 408.549 247.504 409.892 249.217 409.892H384.943C386.656 409.892 388.044 408.549 388.044 406.892V352.73C388.044 351.073 386.656 349.73 384.943 349.73Z" fill="#E7E7E7"/>
<rect id="Rectangle 1" x="163.368" y="424" width="127.167" height="85" rx="5" fill="#E7E7E7"/>
<rect id="Rectangle 3" x="29.9969" y="262" width="99.2526" height="52" rx="5" fill="#C7C7C7"/>
<rect id="Rectangle 2" x="306.043" y="422" width="74.4394" height="84" rx="5" fill="#C7C7C7"/>
<rect id="Rectangle 4" x="32.0647" y="329" width="88.9138" height="17" rx="5" fill="#E7E7E7"/>
</g>
</g>
</g>
</g>
<g id="Group_5" opacity="0.098">
<path id="Vector_11" opacity="0.098" d="M220.334 194H209.375C208.519 194 207.824 194.672 207.824 195.5C207.824 196.328 208.519 197 209.375 197H220.334C221.191 197 221.885 196.328 221.885 195.5C221.885 194.672 221.191 194 220.334 194Z" fill="#4A5166"/>
<path id="Vector_12" opacity="0.098" d="M226.951 194H226.744C225.888 194 225.194 194.672 225.194 195.5C225.194 196.328 225.888 197 226.744 197H226.951C227.808 197 228.502 196.328 228.502 195.5C228.502 194.672 227.808 194 226.951 194Z" fill="#4A5166"/>
</g>
<g id="Group_6">
<mask id="mask1" mask-type="alpha" maskUnits="userSpaceOnUse" x="-153" y="574" width="723" height="18">
<g id="f">
<path id="Vector_13" d="M-149.898 574H566.478C567.3 574 568.089 574.316 568.671 574.879C569.253 575.441 569.579 576.204 569.579 577V591.105H-153V577C-153 576.204 -152.673 575.441 -152.092 574.879C-151.51 574.316 -150.721 574 -149.898 574V574Z" fill="white"/>
</g>
</mask>
<g mask="url(#mask1)">
<path id="Vector_14" d="M-149.898 574H566.478C567.3 574 568.089 574.316 568.671 574.879C569.253 575.441 569.579 576.204 569.579 577V591.105H-153V577C-153 576.204 -152.673 575.441 -152.092 574.879C-151.51 574.316 -150.721 574 -149.898 574V574Z" fill="#52526F"/>
<path id="Vector_15" d="M256.962 532.092H159.616C153.906 532.092 149.277 536.569 149.277 542.092V574.263C149.277 579.786 153.906 584.263 159.616 584.263H256.962C262.672 584.263 267.3 579.786 267.3 574.263V542.092C267.3 536.569 262.672 532.092 256.962 532.092Z" fill="#2F2F47"/>
</g>
</g>
</g>
</g>
<defs>
<filter id="filter0_d" x="-193" y="174" width="802.579" height="477.105" filterUnits="userSpaceOnUse" color-interpolation-filters="sRGB">
<feFlood flood-opacity="0" result="BackgroundImageFix"/>
<feColorMatrix in="SourceAlpha" type="matrix" values="0 0 0 0 0 0 0 0 0 0 0 0 0 0 0 0 0 0 127 0"/>
<feOffset dy="20"/>
<feGaussianBlur stdDeviation="20"/>
<feColorMatrix type="matrix" values="0 0 0 0 0.421822 0 0 0 0 0.554338 0 0 0 0 0.89371 0 0 0 0.243444 0"/>
<feBlend mode="normal" in2="BackgroundImageFix" result="effect1_dropShadow"/>
<feBlend mode="normal" in="SourceGraphic" in2="effect1_dropShadow" result="shape"/>
</filter>
<linearGradient id="paint0_linear" x1="-50.6458" y1="319.943" x2="374.044" y2="611.393" gradientUnits="userSpaceOnUse">
<stop stop-color="#FF8F71"/>
<stop offset="1" stop-color="#FF3E55"/>
</linearGradient>
<clipPath id="clip0">
<rect width="1007" height="786" fill="white"/>
</clipPath>
</defs>
</svg>
