<svg width="620" height="597" viewBox="0 0 620 597" fill="none" xmlns="http://www.w3.org/2000/svg">
<g id="illustration-phones 1" clip-path="url(#clip0)">
<g id="second-phone">
<path id="Vector" d="M536.674 89.4861H356.964C343.317 89.4861 332.254 99.642 332.254 112.17V502.952C332.254 515.48 343.317 525.636 356.964 525.636H536.674C550.321 525.636 561.384 515.48 561.384 502.952V112.17C561.384 99.642 550.321 89.4861 536.674 89.4861Z" fill="url(#paint0_linear)"/>
<path id="Vector_2" d="M528.065 95.6726H364.826C351.179 95.6726 340.116 105.829 340.116 118.357V500.19C340.116 512.718 351.179 522.874 364.826 522.874H528.065C541.712 522.874 552.775 512.718 552.775 500.19V118.357C552.775 105.829 541.712 95.6726 528.065 95.6726Z" fill="white"/>
<path id="Vector_3" d="M528.065 95.6726H364.826C351.179 95.6726 340.116 105.829 340.116 118.357V148.535C340.116 161.063 351.179 171.219 364.826 171.219H528.065C541.712 171.219 552.775 161.063 552.775 148.535V118.357C552.775 105.829 541.712 95.6726 528.065 95.6726Z" fill="url(#paint1_linear)"/>
<g id="first-box">
<g id="first-dark" filter="url(#filter0_d)">
<path d="M529.088 143H373.912C371.752 143 370 144.685 370 146.764V194.236C370 196.315 371.752 198 373.912 198H529.088C531.248 198 533 196.315 533 194.236V146.764C533 144.685 531.248 143 529.088 143Z" fill="black"/>
</g>
<path id="first-white" d="M366.07 142H187.502C185.016 142 183 143.693 183 145.781V193.461C183 195.549 185.016 197.242 187.502 197.242H366.07C368.557 197.242 370.573 195.549 370.573 193.461V145.781C370.573 143.693 368.557 142 366.07 142Z" fill="white"/>
</g>
<g id="second-box">
<g id="second-dark" filter="url(#filter1_d)">
<path d="M535.542 217.987H357.349C354.868 217.987 352.856 219.834 352.856 222.112V274.121C352.856 276.399 354.868 278.245 357.349 278.245H535.542C538.023 278.245 540.035 276.399 540.035 274.121V222.112C540.035 219.834 538.023 217.987 535.542 217.987Z" fill="black"/>
</g>
<path id="second-white" d="M365.685 218H187.493C185.011 218 183 219.847 183 222.124V274.133C183 276.411 185.011 278.258 187.493 278.258H365.685C368.167 278.258 370.178 276.411 370.178 274.133V222.124C370.178 219.847 368.167 218 365.685 218Z" fill="white"/>
</g>
<g id="third-box">
<g id="third-black" filter="url(#filter2_d)">
<path d="M528.542 298H350.349C347.868 298 345.856 299.847 345.856 302.124V354.133C345.856 356.411 347.868 358.258 350.349 358.258H528.542C531.023 358.258 533.035 356.411 533.035 354.133V302.124C533.035 299.847 531.023 298 528.542 298Z" fill="black"/>
</g>
<path id="third-white" d="M365.685 298H187.493C185.011 298 183 299.847 183 302.124V354.133C183 356.411 185.011 358.258 187.493 358.258H365.685C368.167 358.258 370.178 356.411 370.178 354.133V302.124C370.178 299.847 368.167 298 365.685 298Z" fill="white"/>
</g>
<g id="fourth-box">
<g id="fourth-dark" filter="url(#filter3_d)">
<path d="M534.512 367H356.488C354.01 367 352 368.685 352 370.764V418.236C352 420.315 354.01 422 356.488 422H534.512C536.99 422 539 420.315 539 418.236V370.764C539 368.685 536.99 367 534.512 367Z" fill="black"/>
</g>
<path id="fourth-white" d="M365.685 367H187.493C185.011 367 183 368.847 183 371.124V423.133C183 425.411 185.011 427.258 187.493 427.258H365.685C368.167 427.258 370.178 425.411 370.178 423.133V371.124C370.178 368.847 368.167 367 365.685 367Z" fill="white"/>
</g>
<g id="fifth-box">
<g id="fifth-dark" filter="url(#filter4_d)">
<path d="M533.536 449H356.464C353.999 449 352 450.839 352 453.107V504.893C352 507.161 353.999 509 356.464 509H533.536C536.001 509 538 507.161 538 504.893V453.107C538 450.839 536.001 449 533.536 449Z" fill="black"/>
</g>
<path id="fifth-white" d="M365.685 449H187.493C185.011 449 183 450.847 183 453.124V505.133C183 507.411 185.011 509.258 187.493 509.258H365.685C368.167 509.258 370.178 507.411 370.178 505.133V453.124C370.178 450.847 368.167 449 365.685 449Z" fill="white"/>
</g>
<g id="second-phone-corners">
<g id="Vector_4" filter="url(#filter5_d)">
<path d="M552.895 498.719C552.895 509.635 544.118 519.039 532.231 519.039H362.721C350.834 519.039 340.498 509.635 340.498 498.719V115.324C340.498 104.408 350.834 96.4274 362.721 96.4274H382.318C386.461 96.4274 387.991 95.9922 388.242 100.815C388.373 103.32 389.374 105.267 390.977 106.878C392.579 108.46 394.785 109.759 397.319 110.488C399.039 110.983 400.954 111.431 402.779 111.431H492.354C494.181 111.431 496.094 110.88 497.814 110.386C500.35 109.657 502.554 108.441 504.157 106.889C505.761 105.306 506.761 103.441 506.891 100.936C507.141 96.1149 508.673 96.4274 512.816 96.4274H532.231C544.118 96.4274 552.895 104.408 552.895 115.324V498.719V498.719ZM434.292 98.3019H460.841C461.969 98.3019 462.884 98.9432 462.884 99.864C462.884 100.785 461.969 101.427 460.841 101.427H434.292C433.163 101.427 432.25 100.785 432.25 99.864C432.25 98.9432 433.163 98.3019 434.292 98.3019V98.3019ZM474.798 98.8401C474.798 99.5656 474.484 100.261 473.925 100.774C473.366 101.287 472.608 101.576 471.818 101.576C471.028 101.576 470.27 101.287 469.711 100.774C469.152 100.261 468.838 99.5656 468.838 98.8401C468.838 98.1146 469.152 97.4188 469.711 96.9058C470.27 96.3928 471.028 96.1046 471.818 96.1046C472.608 96.1046 473.366 96.3928 473.925 96.9058C474.484 97.4188 474.798 98.1146 474.798 98.8401ZM565.83 186.45V116.556C565.83 98.8793 550.225 84.5492 530.975 84.5492H361.623C341.768 84.5492 325.521 99.4691 325.521 117.704V143.315C324.98 143.315 324.46 143.513 324.077 143.864C323.694 144.216 323.479 144.692 323.478 145.19V158.318C323.478 158.816 323.693 159.293 324.077 159.645C324.46 159.997 324.979 160.195 325.521 160.195V175.823C324.979 175.823 324.46 176.021 324.077 176.373C323.693 176.725 323.478 177.202 323.478 177.7V205.832C323.479 206.329 323.694 206.806 324.077 207.157C324.46 207.509 324.98 207.706 325.521 207.707V217.084C324.98 217.085 324.46 217.282 324.077 217.634C323.694 217.985 323.479 218.462 323.478 218.959V247.092C323.478 247.59 323.693 248.067 324.077 248.419C324.46 248.77 324.979 248.968 325.521 248.969V500.158C325.521 518.45 341.818 533.418 361.736 533.418H530.975C550.145 533.418 565.83 519.014 565.83 501.41V238.338H566.509C566.778 238.338 567.044 238.29 567.292 238.196C567.54 238.101 567.765 237.963 567.955 237.789C568.145 237.615 568.295 237.408 568.398 237.181C568.501 236.953 568.554 236.709 568.554 236.463V188.326C568.554 187.29 567.639 186.45 566.509 186.45H565.83V186.45Z" fill="black"/>
</g>
<path id="Vector_5" d="M552.895 498.719C552.895 509.635 544.118 519.039 532.231 519.039H362.721C350.834 519.039 340.498 509.635 340.498 498.719V115.324C340.498 104.408 350.834 96.4274 362.721 96.4274H382.318C386.461 96.4274 387.991 95.9922 388.242 100.815C388.373 103.32 389.374 105.267 390.977 106.878C392.579 108.46 394.785 109.759 397.319 110.488C399.039 110.983 400.954 111.431 402.779 111.431H492.354C494.181 111.431 496.094 110.88 497.814 110.386C500.35 109.657 502.554 108.441 504.157 106.889C505.761 105.306 506.761 103.441 506.891 100.936C507.141 96.1149 508.673 96.4274 512.816 96.4274H532.231C544.118 96.4274 552.895 104.408 552.895 115.324V498.719V498.719ZM434.292 98.3019H460.841C461.969 98.3019 462.884 98.9432 462.884 99.864C462.884 100.785 461.969 101.427 460.841 101.427H434.292C433.163 101.427 432.25 100.785 432.25 99.864C432.25 98.9432 433.163 98.3019 434.292 98.3019V98.3019ZM474.798 98.8401C474.798 99.5656 474.484 100.261 473.925 100.774C473.366 101.287 472.608 101.576 471.818 101.576C471.028 101.576 470.27 101.287 469.711 100.774C469.152 100.261 468.838 99.5656 468.838 98.8401C468.838 98.1146 469.152 97.4188 469.711 96.9058C470.27 96.3928 471.028 96.1046 471.818 96.1046C472.608 96.1046 473.366 96.3928 473.925 96.9058C474.484 97.4188 474.798 98.1146 474.798 98.8401ZM565.83 186.45V116.556C565.83 98.8793 550.225 84.5492 530.975 84.5492H361.623C341.768 84.5492 325.521 99.4691 325.521 117.704V143.315C324.98 143.315 324.46 143.513 324.077 143.864C323.694 144.216 323.479 144.692 323.478 145.19V158.318C323.478 158.816 323.693 159.293 324.077 159.645C324.46 159.997 324.979 160.195 325.521 160.195V175.823C324.979 175.823 324.46 176.021 324.077 176.373C323.693 176.725 323.478 177.202 323.478 177.7V205.832C323.479 206.329 323.694 206.806 324.077 207.157C324.46 207.509 324.98 207.706 325.521 207.707V217.084C324.98 217.085 324.46 217.282 324.077 217.634C323.694 217.985 323.479 218.462 323.478 218.959V247.092C323.478 247.59 323.693 248.067 324.077 248.419C324.46 248.77 324.979 248.968 325.521 248.969V500.158C325.521 518.45 341.818 533.418 361.736 533.418H530.975C550.145 533.418 565.83 519.014 565.83 501.41V238.338H566.509C566.778 238.338 567.044 238.29 567.292 238.196C567.54 238.101 567.765 237.963 567.955 237.789C568.145 237.615 568.295 237.408 568.398 237.181C568.501 236.953 568.554 236.709 568.554 236.463V188.326C568.554 187.29 567.639 186.45 566.509 186.45H565.83V186.45Z" fill="#1D1D25"/>
<path id="Vector_6" fill-rule="evenodd" clip-rule="evenodd" d="M460.841 98.3019H434.292C433.163 98.3019 432.249 98.9453 432.249 99.866C432.249 100.786 433.163 101.428 434.293 101.428H460.841C461.97 101.428 462.885 100.786 462.885 99.866C462.885 98.9453 461.97 98.3019 460.841 98.3019V98.3019ZM471.819 96.1057C471.029 96.1059 470.271 96.3944 469.712 96.9076C469.154 97.4208 468.84 98.1167 468.84 98.8422C468.84 99.5677 469.155 100.263 469.714 100.776C470.273 101.289 471.031 101.577 471.821 101.577C472.611 101.576 473.369 101.288 473.928 100.775C474.486 100.261 474.8 99.5656 474.8 98.8401C474.799 98.1146 474.485 97.4189 473.926 96.9061C473.367 96.3933 472.609 96.1054 471.819 96.1057" fill="black"/>
</g>
</g>
<g id="first-phone">
<path id="Vector_7" d="M252.507 24.5275H72.7972C59.1502 24.5275 48.0871 34.6835 48.0871 47.2115V437.994C48.0871 450.522 59.1502 460.678 72.7972 460.678H252.507C266.154 460.678 277.217 450.522 277.217 437.994V47.2115C277.217 34.6835 266.154 24.5275 252.507 24.5275Z" fill="url(#paint2_linear)"/>
<path id="blogr" d="M112.109 254.006V227.943H122.572C124.52 227.943 126.203 228.218 127.622 228.768C129.042 229.319 130.137 230.102 130.908 231.118C131.678 232.133 132.064 233.326 132.064 234.696C132.064 235.944 131.766 237.04 131.172 237.982C130.576 238.925 129.705 239.694 128.656 240.203C130.116 240.717 131.252 241.53 132.063 242.644C132.874 243.757 133.28 245.073 133.28 246.591C133.28 248.108 132.847 249.416 131.982 250.518C131.118 251.62 129.9 252.476 128.332 253.088C126.764 253.699 124.912 254.005 122.776 254.005H112.109V254.006ZM117.949 232.457V238.441H121.924C123.25 238.441 124.27 238.191 124.986 237.688C125.703 237.186 126.061 236.446 126.061 235.468C126.061 234.488 125.702 233.743 124.986 233.228C124.27 232.715 123.249 232.458 121.924 232.458H117.948L117.949 232.457ZM117.949 249.49H122.492C124.006 249.49 125.176 249.196 126 248.61C126.825 248.022 127.237 247.178 127.237 246.076C127.237 244.975 126.825 244.131 126 243.544C125.175 242.956 124.006 242.662 122.492 242.662H117.949V249.49ZM136.89 254.006V226.621H142.569V254.006H136.89ZM157.413 254.556C155.818 254.556 154.344 254.299 152.992 253.786C151.672 253.292 150.472 252.562 149.463 251.638C148.455 250.71 147.662 249.605 147.131 248.389C146.576 247.141 146.3 245.783 146.3 244.314C146.3 242.846 146.583 241.494 147.151 240.258C147.703 239.044 148.509 237.94 149.523 237.01C150.543 236.076 151.757 235.34 153.093 234.844C154.459 234.329 155.952 234.072 157.574 234.072C159.169 234.072 160.644 234.33 161.995 234.844C163.315 235.338 164.515 236.068 165.524 236.991C166.529 237.915 167.321 239.013 167.856 240.222C168.411 241.457 168.687 242.81 168.687 244.278C168.687 245.746 168.404 247.104 167.836 248.352C167.287 249.574 166.481 250.684 165.464 251.62C164.443 252.553 163.23 253.289 161.894 253.785C160.528 254.299 159.034 254.556 157.413 254.556V254.556ZM157.493 249.931C158.521 249.931 159.44 249.686 160.252 249.196C161.063 248.708 161.704 248.041 162.178 247.196C162.651 246.352 162.888 245.392 162.888 244.314C162.888 243.238 162.651 242.277 162.178 241.432C161.704 240.589 161.063 239.922 160.252 239.432C159.44 238.942 158.521 238.698 157.493 238.698C156.466 238.698 155.547 238.942 154.736 239.432C153.924 239.922 153.283 240.589 152.809 241.432C152.337 242.278 152.099 243.237 152.099 244.314C152.099 245.392 152.336 246.352 152.809 247.196C153.283 248.041 153.924 248.708 154.736 249.196C155.547 249.686 156.466 249.931 157.493 249.931ZM181.22 253.455C179.913 253.464 178.619 253.213 177.428 252.721C176.266 252.241 175.224 251.547 174.366 250.683C173.487 249.794 172.799 248.76 172.338 247.636C171.851 246.474 171.607 245.22 171.607 243.874C171.607 242.479 171.858 241.188 172.358 240.001C172.833 238.851 173.55 237.797 174.467 236.9C175.364 236.025 176.439 235.32 177.631 234.825C178.833 234.324 180.138 234.072 181.544 234.072C182.924 234.072 184.167 234.324 185.276 234.825C186.383 235.325 187.332 236.077 188.034 237.009L188.155 234.623H193.387V251.693C193.387 253.186 193.124 254.544 192.596 255.768C192.096 256.954 191.329 258.029 190.346 258.925C189.355 259.816 188.175 260.51 186.878 260.962C185.539 261.44 184.059 261.678 182.437 261.678C180.842 261.678 179.408 261.451 178.138 260.998C176.908 260.569 175.779 259.927 174.812 259.108C173.873 258.31 173.115 257.349 172.581 256.281L178.016 255.071C178.483 255.763 179.132 256.337 179.902 256.741C180.673 257.144 181.544 257.346 182.518 257.346C183.573 257.346 184.485 257.132 185.255 256.704C186.029 256.272 186.655 255.648 187.06 254.905C187.493 254.134 187.709 253.234 187.709 252.207V250.629C186.975 251.512 186.023 252.223 184.931 252.702C183.809 253.204 182.572 253.455 181.22 253.455V253.455ZM182.599 248.903C183.599 248.903 184.486 248.676 185.255 248.224C186.031 247.767 186.666 247.135 187.101 246.389C187.561 245.618 187.79 244.743 187.79 243.764C187.79 242.784 187.561 241.91 187.101 241.14C186.666 240.393 186.031 239.762 185.255 239.304C184.485 238.851 183.6 238.624 182.599 238.624C181.599 238.624 180.713 238.851 179.943 239.304C179.167 239.762 178.532 240.393 178.097 241.14C177.637 241.91 177.408 242.785 177.408 243.764C177.408 244.743 177.638 245.618 178.097 246.389C178.558 247.159 179.172 247.77 179.943 248.224C180.713 248.677 181.598 248.903 182.599 248.903ZM197.93 254.006V234.622H203.162L203.364 237.559C203.906 236.532 204.636 235.742 205.555 235.191C206.475 234.641 207.556 234.365 208.801 234.365C209.178 234.365 209.557 234.396 209.935 234.457C210.314 234.519 210.652 234.598 210.949 234.695L210.341 239.762C210.045 239.665 209.74 239.597 209.429 239.56C209.112 239.523 208.794 239.504 208.475 239.504C206.907 239.504 205.704 239.939 204.866 240.808C204.027 241.677 203.608 242.906 203.608 244.497V254.004H197.93V254.006Z" fill="white"/>
<g id="Vector_8" filter="url(#filter6_d)">
<path d="M268.728 433.76C268.728 444.676 259.951 454.081 248.064 454.081H78.5547C66.6668 454.081 56.3313 444.676 56.3313 433.76V50.3656C56.3313 39.4494 66.6668 31.4688 78.5547 31.4688H98.1509C102.294 31.4688 103.824 31.0337 104.076 35.8561C104.206 38.3616 105.207 40.3083 106.811 41.9199C108.412 43.5016 110.618 44.8008 113.152 45.5298C114.872 46.0247 116.787 46.4722 118.612 46.4722H208.187C210.014 46.4722 211.928 45.9216 213.647 45.4277C216.183 44.6987 218.387 43.482 219.99 41.9302C221.594 40.3475 222.595 38.4823 222.724 35.9778C222.974 31.1564 224.506 31.4688 228.65 31.4688H248.064C259.951 31.4688 268.728 39.4494 268.728 50.3656V433.76V433.76ZM150.125 33.3433H176.674C177.802 33.3433 178.717 33.9847 178.717 34.9054C178.717 35.8262 177.802 36.4685 176.674 36.4685H150.125C148.997 36.4685 148.083 35.8262 148.083 34.9054C148.083 33.9847 148.997 33.3433 150.125 33.3433V33.3433ZM190.631 33.8815C190.631 34.607 190.317 35.3028 189.758 35.8158C189.199 36.3288 188.441 36.617 187.651 36.617C186.861 36.617 186.103 36.3288 185.544 35.8158C184.985 35.3028 184.671 34.607 184.671 33.8815C184.671 33.1561 184.985 32.4603 185.544 31.9473C186.103 31.4343 186.861 31.1461 187.651 31.1461C188.441 31.1461 189.199 31.4343 189.758 31.9473C190.317 32.4603 190.631 33.1561 190.631 33.8815ZM281.663 121.491V51.5977C281.663 33.9207 266.059 19.5907 246.808 19.5907H77.4562C57.6016 19.5907 41.3547 34.5105 41.3547 52.7453V78.3565C40.813 78.3565 40.2935 78.554 39.9104 78.9055C39.5273 79.257 39.3119 79.7338 39.3116 80.231V93.3599C39.3116 93.8574 39.5268 94.3345 39.9099 94.6864C40.293 95.0383 40.8127 95.2362 41.3547 95.2365V110.865C40.8127 110.865 40.293 111.063 39.9099 111.415C39.5268 111.767 39.3116 112.244 39.3116 112.741V140.873C39.3122 141.371 39.5277 141.847 39.9107 142.199C40.2938 142.55 40.8131 142.748 41.3547 142.748V152.126C40.8131 152.126 40.2938 152.324 39.9107 152.675C39.5277 153.026 39.3122 153.503 39.3116 154V182.133C39.3116 182.631 39.5268 183.108 39.9099 183.46C40.293 183.812 40.8127 184.01 41.3547 184.01V435.2C41.3547 453.491 57.651 468.459 77.5696 468.459H246.808C265.978 468.459 281.663 454.055 281.663 436.451V173.38H282.343C282.611 173.38 282.877 173.331 283.125 173.237C283.373 173.143 283.598 173.005 283.788 172.831C283.978 172.656 284.128 172.45 284.231 172.222C284.334 171.994 284.387 171.75 284.387 171.504V123.368C284.387 122.331 283.473 121.491 282.343 121.491H281.663V121.491Z" fill="black"/>
</g>
<path id="Vector_9" d="M268.728 433.76C268.728 444.676 259.951 454.081 248.064 454.081H78.5547C66.6668 454.081 56.3313 444.676 56.3313 433.76V50.3656C56.3313 39.4494 66.6668 31.4688 78.5547 31.4688H98.1509C102.294 31.4688 103.824 31.0337 104.076 35.8561C104.206 38.3616 105.207 40.3083 106.811 41.9199C108.412 43.5016 110.618 44.8008 113.152 45.5298C114.872 46.0247 116.787 46.4722 118.612 46.4722H208.187C210.014 46.4722 211.928 45.9216 213.647 45.4277C216.183 44.6987 218.387 43.482 219.99 41.9302C221.594 40.3475 222.595 38.4823 222.724 35.9778C222.974 31.1564 224.506 31.4688 228.65 31.4688H248.064C259.951 31.4688 268.728 39.4494 268.728 50.3656V433.76V433.76ZM150.125 33.3433H176.674C177.802 33.3433 178.717 33.9847 178.717 34.9054C178.717 35.8262 177.802 36.4685 176.674 36.4685H150.125C148.997 36.4685 148.083 35.8262 148.083 34.9054C148.083 33.9847 148.997 33.3433 150.125 33.3433V33.3433ZM190.631 33.8815C190.631 34.607 190.317 35.3028 189.758 35.8158C189.199 36.3288 188.441 36.617 187.651 36.617C186.861 36.617 186.103 36.3288 185.544 35.8158C184.985 35.3028 184.671 34.607 184.671 33.8815C184.671 33.1561 184.985 32.4603 185.544 31.9473C186.103 31.4343 186.861 31.1461 187.651 31.1461C188.441 31.1461 189.199 31.4343 189.758 31.9473C190.317 32.4603 190.631 33.1561 190.631 33.8815ZM281.663 121.491V51.5977C281.663 33.9207 266.059 19.5907 246.808 19.5907H77.4562C57.6016 19.5907 41.3547 34.5105 41.3547 52.7453V78.3565C40.813 78.3565 40.2935 78.554 39.9104 78.9055C39.5273 79.257 39.3119 79.7338 39.3116 80.231V93.3599C39.3116 93.8574 39.5268 94.3345 39.9099 94.6864C40.293 95.0383 40.8127 95.2362 41.3547 95.2365V110.865C40.8127 110.865 40.293 111.063 39.9099 111.415C39.5268 111.767 39.3116 112.244 39.3116 112.741V140.873C39.3122 141.371 39.5277 141.847 39.9107 142.199C40.2938 142.55 40.8131 142.748 41.3547 142.748V152.126C40.8131 152.126 40.2938 152.324 39.9107 152.675C39.5277 153.026 39.3122 153.503 39.3116 154V182.133C39.3116 182.631 39.5268 183.108 39.9099 183.46C40.293 183.812 40.8127 184.01 41.3547 184.01V435.2C41.3547 453.491 57.651 468.459 77.5696 468.459H246.808C265.978 468.459 281.663 454.055 281.663 436.451V173.38H282.343C282.611 173.38 282.877 173.331 283.125 173.237C283.373 173.143 283.598 173.005 283.788 172.831C283.978 172.656 284.128 172.45 284.231 172.222C284.334 171.994 284.387 171.75 284.387 171.504V123.368C284.387 122.331 283.473 121.491 282.343 121.491H281.663V121.491Z" fill="#1D1D25"/>
<path id="Vector_10" fill-rule="evenodd" clip-rule="evenodd" d="M176.674 33.3433H150.125C148.997 33.3433 148.082 33.9867 148.082 34.9075C148.082 35.8272 148.997 36.4696 150.126 36.4696H176.674C177.803 36.4696 178.718 35.8272 178.718 34.9075C178.718 33.9867 177.803 33.3433 176.674 33.3433V33.3433ZM187.652 31.1471C186.862 31.1474 186.104 31.4358 185.545 31.949C184.987 32.4622 184.673 33.1581 184.673 33.8836C184.674 34.6091 184.988 35.3048 185.547 35.8176C186.106 36.3304 186.864 36.6183 187.654 36.618C188.445 36.6178 189.203 36.3293 189.761 35.8161C190.32 35.3029 190.633 34.607 190.633 33.8815C190.633 33.156 190.319 32.4604 189.76 31.9476C189.201 31.4348 188.442 31.1468 187.652 31.1471" fill="black"/>
</g>
</g>
<defs>
<filter id="filter0_d" x="350" y="133" width="203" height="95" filterUnits="userSpaceOnUse" color-interpolation-filters="sRGB">
<feFlood flood-opacity="0" result="BackgroundImageFix"/>
<feColorMatrix in="SourceAlpha" type="matrix" values="0 0 0 0 0 0 0 0 0 0 0 0 0 0 0 0 0 0 127 0"/>
<feOffset dy="10"/>
<feGaussianBlur stdDeviation="10"/>
<feColorMatrix type="matrix" values="0 0 0 0 0.421822 0 0 0 0 0.554338 0 0 0 0 0.89371 0 0 0 0.243444 0"/>
<feBlend mode="normal" in2="BackgroundImageFix" result="effect1_dropShadow"/>
<feBlend mode="normal" in="SourceGraphic" in2="effect1_dropShadow" result="shape"/>
</filter>
<filter id="filter1_d" x="332.856" y="207.987" width="227.178" height="100.258" filterUnits="userSpaceOnUse" color-interpolation-filters="sRGB">
<feFlood flood-opacity="0" result="BackgroundImageFix"/>
<feColorMatrix in="SourceAlpha" type="matrix" values="0 0 0 0 0 0 0 0 0 0 0 0 0 0 0 0 0 0 127 0"/>
<feOffset dy="10"/>
<feGaussianBlur stdDeviation="10"/>
<feColorMatrix type="matrix" values="0 0 0 0 0.421822 0 0 0 0 0.554338 0 0 0 0 0.89371 0 0 0 0.243444 0"/>
<feBlend mode="normal" in2="BackgroundImageFix" result="effect1_dropShadow"/>
<feBlend mode="normal" in="SourceGraphic" in2="effect1_dropShadow" result="shape"/>
</filter>
<filter id="filter2_d" x="325.856" y="288" width="227.178" height="100.258" filterUnits="userSpaceOnUse" color-interpolation-filters="sRGB">
<feFlood flood-opacity="0" result="BackgroundImageFix"/>
<feColorMatrix in="SourceAlpha" type="matrix" values="0 0 0 0 0 0 0 0 0 0 0 0 0 0 0 0 0 0 127 0"/>
<feOffset dy="10"/>
<feGaussianBlur stdDeviation="10"/>
<feColorMatrix type="matrix" values="0 0 0 0 0.421822 0 0 0 0 0.554338 0 0 0 0 0.89371 0 0 0 0.243444 0"/>
<feBlend mode="normal" in2="BackgroundImageFix" result="effect1_dropShadow"/>
<feBlend mode="normal" in="SourceGraphic" in2="effect1_dropShadow" result="shape"/>
</filter>
<filter id="filter3_d" x="332" y="357" width="227" height="95" filterUnits="userSpaceOnUse" color-interpolation-filters="sRGB">
<feFlood flood-opacity="0" result="BackgroundImageFix"/>
<feColorMatrix in="SourceAlpha" type="matrix" values="0 0 0 0 0 0 0 0 0 0 0 0 0 0 0 0 0 0 127 0"/>
<feOffset dy="10"/>
<feGaussianBlur stdDeviation="10"/>
<feColorMatrix type="matrix" values="0 0 0 0 0.421822 0 0 0 0 0.554338 0 0 0 0 0.89371 0 0 0 0.243444 0"/>
<feBlend mode="normal" in2="BackgroundImageFix" result="effect1_dropShadow"/>
<feBlend mode="normal" in="SourceGraphic" in2="effect1_dropShadow" result="shape"/>
</filter>
<filter id="filter4_d" x="332" y="439" width="226" height="100" filterUnits="userSpaceOnUse" color-interpolation-filters="sRGB">
<feFlood flood-opacity="0" result="BackgroundImageFix"/>
<feColorMatrix in="SourceAlpha" type="matrix" values="0 0 0 0 0 0 0 0 0 0 0 0 0 0 0 0 0 0 127 0"/>
<feOffset dy="10"/>
<feGaussianBlur stdDeviation="10"/>
<feColorMatrix type="matrix" values="0 0 0 0 0.421822 0 0 0 0 0.554338 0 0 0 0 0.89371 0 0 0 0.243444 0"/>
<feBlend mode="normal" in2="BackgroundImageFix" result="effect1_dropShadow"/>
<feBlend mode="normal" in="SourceGraphic" in2="effect1_dropShadow" result="shape"/>
</filter>
<filter id="filter5_d" x="283.478" y="64.5492" width="325.075" height="528.869" filterUnits="userSpaceOnUse" color-interpolation-filters="sRGB">
<feFlood flood-opacity="0" result="BackgroundImageFix"/>
<feColorMatrix in="SourceAlpha" type="matrix" values="0 0 0 0 0 0 0 0 0 0 0 0 0 0 0 0 0 0 127 0"/>
<feOffset dy="20"/>
<feGaussianBlur stdDeviation="20"/>
<feColorMatrix type="matrix" values="0 0 0 0 0.421822 0 0 0 0 0.554338 0 0 0 0 0.89371 0 0 0 0.243444 0"/>
<feBlend mode="normal" in2="BackgroundImageFix" result="effect1_dropShadow"/>
<feBlend mode="normal" in="SourceGraphic" in2="effect1_dropShadow" result="shape"/>
</filter>
<filter id="filter6_d" x="-0.688416" y="-0.409332" width="325.075" height="528.869" filterUnits="userSpaceOnUse" color-interpolation-filters="sRGB">
<feFlood flood-opacity="0" result="BackgroundImageFix"/>
<feColorMatrix in="SourceAlpha" type="matrix" values="0 0 0 0 0 0 0 0 0 0 0 0 0 0 0 0 0 0 127 0"/>
<feOffset dy="20"/>
<feGaussianBlur stdDeviation="20"/>
<feColorMatrix type="matrix" values="0 0 0 0 0.421822 0 0 0 0 0.554338 0 0 0 0 0.89371 0 0 0 0.243444 0"/>
<feBlend mode="normal" in2="BackgroundImageFix" result="effect1_dropShadow"/>
<feBlend mode="normal" in="SourceGraphic" in2="effect1_dropShadow" result="shape"/>
</filter>
<linearGradient id="paint0_linear" x1="420.173" y1="89.4861" x2="590.354" y2="473.887" gradientUnits="userSpaceOnUse">
<stop stop-color="#FF8F71"/>
<stop offset="1" stop-color="#FF3E55"/>
</linearGradient>
<linearGradient id="paint1_linear" x1="340.116" y1="127.789" x2="524.735" y2="205.618" gradientUnits="userSpaceOnUse">
<stop stop-color="#FF8F71"/>
<stop offset="1" stop-color="#FF3E55"/>
</linearGradient>
<linearGradient id="paint2_linear" x1="136.007" y1="24.5275" x2="306.187" y2="408.929" gradientUnits="userSpaceOnUse">
<stop stop-color="#FF8F71"/>
<stop offset="1" stop-color="#FF3E55"/>
</linearGradient>
<clipPath id="clip0">
<rect width="620" height="597" fill="white"/>
</clipPath>
</defs>
</svg>
