<svg width="610" height="478" viewBox="0 0 610 478" fill="none" xmlns="http://www.w3.org/2000/svg">
<g id="Group" filter="url(#filter0_d)">
<path id="Vector" d="M475.599 36H-55.8152C-62.6672 36 -68.2218 41.3726 -68.2218 48V392C-68.2218 398.627 -62.6672 404 -55.8152 404H475.599C482.451 404 488.006 398.627 488.006 392V48C488.006 41.3726 482.451 36 475.599 36Z" fill="#535353"/>
<path id="Vector_2" d="M474.566 39H-54.7813C-60.4913 39 -65.1201 43.4772 -65.1201 49V391C-65.1201 396.523 -60.4913 401 -54.7813 401H474.566C480.276 401 484.905 396.523 484.905 391V49C484.905 43.4772 480.276 39 474.566 39Z" fill="#1D1D25"/>
<g id="Group_2">
<mask id="mask0" mask-type="alpha" maskUnits="userSpaceOnUse" x="-51" y="52" width="524" height="336">
<g id="d">
<path id="Vector_3" d="M469.396 52H-47.5442C-49.2572 52 -50.6458 53.3431 -50.6458 55V384.872C-50.6458 386.529 -49.2572 387.872 -47.5442 387.872H469.396C471.109 387.872 472.498 386.529 472.498 384.872V55C472.498 53.3431 471.109 52 469.396 52Z" fill="white"/>
</g>
</mask>
<g mask="url(#mask0)">
<path id="Vector_4" d="M469.396 52H-47.5442C-49.2572 52 -50.6458 53.3431 -50.6458 55V384.872C-50.6458 386.529 -49.2572 387.872 -47.5442 387.872H469.396C471.109 387.872 472.498 386.529 472.498 384.872V55C472.498 53.3431 471.109 52 469.396 52Z" fill="url(#paint0_linear)"/>
<path id="Vector_5" d="M469.06 112.293H-47.8802C-49.5932 112.293 -50.9818 113.636 -50.9818 115.293V385.131C-50.9818 386.788 -49.5932 388.131 -47.8802 388.131H469.06C470.773 388.131 472.162 386.788 472.162 385.131V115.293C472.162 113.636 470.773 112.293 469.06 112.293Z" fill="#F9F6F6"/>
<g id="Group_3">
<g id="Group_4">
<path id="Vector_6" d="M131.985 78H27.9292C26.2162 78 24.8275 79.3431 24.8275 81V331.541C24.8275 333.198 26.2162 334.541 27.9292 334.541H131.985C133.698 334.541 135.087 333.198 135.087 331.541V81C135.087 79.3431 133.698 78 131.985 78Z" fill="white"/>
<rect id="Rectangle 8" x="34.1324" y="253" width="98.2187" height="17" rx="5" fill="#E7E7E7"/>
<rect id="Rectangle 7" x="35.1663" y="221" width="76.5071" height="17" rx="5" fill="#E7E7E7"/>
<rect id="Rectangle 6" x="34.1324" y="187" width="54.7957" height="17" rx="5" fill="#E7E7E7"/>
<rect id="Rectangle 5" x="34.1324" y="285" width="33.0842" height="17" rx="5" fill="#E7E7E7"/>
<path id="Vector_7" d="M395.499 89.46H155.379C153.666 89.46 152.277 90.8031 152.277 92.46V343.001C152.277 344.658 153.666 346.001 155.379 346.001H395.499C397.212 346.001 398.6 344.658 398.6 343.001V92.46C398.6 90.8031 397.212 89.46 395.499 89.46Z" fill="white"/>
<path id="Vector_8" d="M384.943 103.082H165.936C164.223 103.082 162.834 104.425 162.834 106.082V160.244C162.834 161.901 164.223 163.244 165.936 163.244H384.943C386.656 163.244 388.044 161.901 388.044 160.244V106.082C388.044 104.425 386.656 103.082 384.943 103.082Z" fill="#E7E7E7"/>
<path id="Vector_9" d="M226.591 175.73H165.936C164.223 175.73 162.834 177.073 162.834 178.73V232.892C162.834 234.549 164.223 235.892 165.936 235.892H226.591C228.304 235.892 229.693 234.549 229.693 232.892V178.73C229.693 177.073 228.304 175.73 226.591 175.73Z" fill="#C7C7C7"/>
<path id="Vector_10" d="M384.943 175.73H249.217C247.504 175.73 246.115 177.073 246.115 178.73V232.892C246.115 234.549 247.504 235.892 249.217 235.892H384.943C386.656 235.892 388.044 234.549 388.044 232.892V178.73C388.044 177.073 386.656 175.73 384.943 175.73Z" fill="#E7E7E7"/>
<rect id="Rectangle 1" x="163.368" y="250" width="127.167" height="85" rx="5" fill="#E7E7E7"/>
<rect id="Rectangle 3" x="29.9969" y="88" width="99.2526" height="52" rx="5" fill="#C7C7C7"/>
<rect id="Rectangle 2" x="306.043" y="248" width="74.4394" height="84" rx="5" fill="#C7C7C7"/>
<rect id="Rectangle 4" x="32.0647" y="155" width="88.9138" height="17" rx="5" fill="#E7E7E7"/>
</g>
</g>
</g>
</g>
<g id="Group_5" opacity="0.098">
<path id="Vector_11" opacity="0.098" d="M220.334 20H209.375C208.519 20 207.824 20.6716 207.824 21.5C207.824 22.3284 208.519 23 209.375 23H220.334C221.191 23 221.885 22.3284 221.885 21.5C221.885 20.6716 221.191 20 220.334 20Z" fill="#4A5166"/>
<path id="Vector_12" opacity="0.098" d="M226.951 20H226.744C225.888 20 225.194 20.6716 225.194 21.5C225.194 22.3284 225.888 23 226.744 23H226.951C227.808 23 228.502 22.3284 228.502 21.5C228.502 20.6716 227.808 20 226.951 20Z" fill="#4A5166"/>
</g>
<g id="Group_6">
<mask id="mask1" mask-type="alpha" maskUnits="userSpaceOnUse" x="-153" y="400" width="723" height="18">
<g id="f">
<path id="Vector_13" d="M-149.898 400H566.478C567.3 400 568.089 400.316 568.671 400.879C569.253 401.441 569.579 402.204 569.579 403V417.105H-153V403C-153 402.204 -152.673 401.441 -152.092 400.879C-151.51 400.316 -150.721 400 -149.898 400V400Z" fill="white"/>
</g>
</mask>
<g mask="url(#mask1)">
<path id="Vector_14" d="M-149.898 400H566.478C567.3 400 568.089 400.316 568.671 400.879C569.253 401.441 569.579 402.204 569.579 403V417.105H-153V403C-153 402.204 -152.673 401.441 -152.092 400.879C-151.51 400.316 -150.721 400 -149.898 400V400Z" fill="#52526F"/>
<path id="Vector_15" d="M256.962 358.092H159.616C153.906 358.092 149.277 362.569 149.277 368.092V400.263C149.277 405.786 153.906 410.263 159.616 410.263H256.962C262.672 410.263 267.3 405.786 267.3 400.263V368.092C267.3 362.569 262.672 358.092 256.962 358.092Z" fill="#2F2F47"/>
</g>
</g>
</g>
<defs>
<filter id="filter0_d" x="-193" y="0" width="802.579" height="477.105" filterUnits="userSpaceOnUse" color-interpolation-filters="sRGB">
<feFlood flood-opacity="0" result="BackgroundImageFix"/>
<feColorMatrix in="SourceAlpha" type="matrix" values="0 0 0 0 0 0 0 0 0 0 0 0 0 0 0 0 0 0 127 0"/>
<feOffset dy="20"/>
<feGaussianBlur stdDeviation="20"/>
<feColorMatrix type="matrix" values="0 0 0 0 0.421822 0 0 0 0 0.554338 0 0 0 0 0.89371 0 0 0 0.243444 0"/>
<feBlend mode="normal" in2="BackgroundImageFix" result="effect1_dropShadow"/>
<feBlend mode="normal" in="SourceGraphic" in2="effect1_dropShadow" result="shape"/>
</filter>
<linearGradient id="paint0_linear" x1="-50.6458" y1="145.943" x2="374.044" y2="437.393" gradientUnits="userSpaceOnUse">
<stop stop-color="#FF8F71"/>
<stop offset="1" stop-color="#FF3E55"/>
</linearGradient>
</defs>
</svg>
